<?xml version="1.0" standalone="no"?>
<!DOCTYPE svg PUBLIC "-//W3C//DTD SVG 20010904//EN"
 "http://www.w3.org/TR/2001/REC-SVG-20010904/DTD/svg10.dtd">
<svg version="1.0" xmlns="http://www.w3.org/2000/svg"
 width="640.000000pt" height="640.000000pt" viewBox="0 0 640.000000 640.000000"
 preserveAspectRatio="xMidYMid meet">
<metadata>
Created by potrace 1.14, written by Peter Selinger 2001-2017
</metadata>
<g transform="translate(0.000000,640.000000) scale(0.100000,-0.100000)"
fill="#000000" stroke="none">
<path d="M2217 6379 c-38 -20 -87 -79 -112 -134 -7 -16 -39 -100 -70 -185 -31
-85 -60 -164 -64 -175 -5 -11 -23 -60 -41 -110 -17 -49 -38 -103 -45 -120 -7
-16 -16 -41 -20 -55 -4 -14 -17 -52 -30 -85 -13 -33 -39 -105 -59 -160 -20
-55 -40 -107 -43 -115 -3 -8 -7 -22 -9 -30 -2 -8 -8 -23 -13 -35 -6 -11 -27
-65 -46 -120 -20 -55 -39 -109 -44 -120 -5 -11 -14 -33 -19 -50 -23 -65 -124
-341 -132 -360 -5 -11 -18 -47 -30 -80 -11 -33 -23 -67 -27 -75 -3 -8 -7 -19
-9 -25 -1 -5 -48 -134 -104 -285 -57 -151 -103 -279 -105 -285 -1 -5 -7 -23
-14 -40 -7 -16 -32 -84 -56 -150 -24 -66 -67 -181 -95 -255 -28 -74 -52 -139
-54 -145 -6 -21 -53 -150 -66 -180 -5 -11 -13 -33 -18 -50 -6 -16 -52 -142
-102 -280 -51 -137 -105 -285 -121 -327 l-28 -78 32 14 c135 58 250 105 283
116 21 7 53 18 69 25 88 38 478 150 590 171 17 3 50 10 75 15 25 6 59 13 75
15 17 3 55 9 85 14 81 13 141 22 175 25 76 7 215 17 265 18 l55 2 36 108 c21
59 37 109 37 110 1 1 3 9 6 17 2 8 41 130 86 270 45 140 87 269 93 285 6 17
12 32 12 35 1 3 21 66 45 140 24 74 44 137 45 140 1 3 11 37 24 75 12 39 24
77 26 85 3 8 14 42 26 75 11 33 22 67 24 75 2 8 4 16 5 18 2 1 4 7 5 12 1 6 4
12 5 15 1 3 4 10 5 15 1 6 4 12 5 15 1 3 3 8 4 13 1 4 12 39 25 77 13 39 24
75 26 80 1 6 7 23 13 38 7 16 12 32 12 35 0 21 92 288 111 322 70 125 228 118
292 -12 21 -41 119 -329 131 -383 1 -5 26 -82 54 -170 98 -300 221 -680 267
-825 26 -80 52 -158 58 -175 7 -16 12 -32 12 -35 1 -10 108 -338 129 -395 l22
-60 48 -2 c27 -1 54 -4 62 -7 7 -3 16 -1 19 5 4 5 10 7 15 4 4 -3 43 -7 87
-10 91 -5 240 -20 253 -25 3 -1 8 -2 12 -2 10 2 224 -33 263 -43 11 -2 52 -12
90 -20 39 -9 84 -20 101 -26 17 -5 40 -11 51 -13 11 -3 53 -15 94 -27 41 -13
77 -23 81 -23 3 -1 10 -4 14 -9 4 -4 13 -7 21 -7 21 0 291 -109 386 -156 98
-49 112 -52 98 -27 -11 19 -41 100 -151 403 -121 331 -128 352 -149 403 -6 12
-13 33 -16 47 -4 14 -13 39 -20 55 -7 17 -41 107 -75 200 -34 94 -84 231 -112
305 -27 74 -67 185 -90 245 -22 61 -52 144 -68 185 -16 41 -43 116 -60 165
-18 50 -36 99 -41 110 -4 11 -31 83 -59 160 -66 181 -82 225 -115 310 -15 39
-33 90 -41 115 -8 25 -19 54 -24 65 -5 11 -18 47 -30 80 -11 33 -25 69 -30 80
-5 11 -23 58 -39 105 -16 47 -42 117 -56 155 -15 39 -35 93 -44 120 -42 118
-73 201 -81 220 -5 11 -34 90 -65 175 -90 249 -98 268 -133 316 -65 89 7 84
-1022 83 -884 0 -906 0 -943 -20z"/>
<path d="M2019 2175 c-1 -8 -2 -18 -3 -22 -86 -343 -24 -771 147 -1023 46 -68
110 -139 119 -134 4 3 8 11 8 19 0 60 107 225 146 225 8 0 14 4 14 9 0 20 105
45 185 44 87 -1 133 -16 184 -59 28 -23 64 -79 71 -109 1 -5 7 -21 12 -35 12
-32 17 -71 23 -205 8 -179 14 -252 24 -277 5 -12 9 -25 9 -28 0 -3 5 -23 11
-45 6 -22 9 -43 8 -46 -1 -3 3 -12 10 -20 6 -8 26 -43 45 -79 38 -73 50 -89
127 -172 52 -56 111 -100 194 -147 47 -26 49 -26 42 2 -4 13 -8 30 -9 38 -2 8
-6 21 -9 29 -4 8 -9 27 -12 43 -3 15 -8 39 -11 55 -8 35 -8 168 -1 205 23 111
84 217 174 302 70 66 57 57 227 170 165 109 275 194 333 257 21 23 45 48 53
57 26 28 90 129 119 188 24 49 66 163 63 170 0 2 4 17 9 35 30 106 30 253 0
400 -13 59 -22 65 -61 32 -8 -6 -41 -26 -74 -44 -151 -81 -385 -159 -556 -186
-19 -3 -46 -7 -60 -10 -73 -12 -172 -18 -320 -18 -147 0 -335 10 -350 19 -3 1
-30 6 -61 9 -60 7 -90 12 -117 20 -9 3 -35 7 -57 11 -22 3 -74 15 -115 26
-197 55 -339 132 -458 248 -65 63 -81 72 -83 46z"/>
</g>
</svg>
